<svg width="28" height="21" viewBox="0 0 28 21" fill="none" xmlns="http://www.w3.org/2000/svg">
<g filter="url(#filter0_d_35_157)">
<path d="M22 2.73969C21.3625 3.04897 20.6896 3.24227 19.9812 3.35825C20.6896 2.89433 21.2563 2.15979 21.5042 1.27062C20.8313 1.69588 20.0875 2.00515 19.2729 2.19845C18.6354 1.46392 17.7146 1 16.7229 1C14.8104 1 13.2521 2.70103 13.2521 4.78866C13.2521 5.09794 13.2875 5.36856 13.3583 5.63918C10.4896 5.48454 7.90417 3.9768 6.16875 1.65722C5.88542 2.23711 5.70833 2.85567 5.70833 3.55155C5.70833 4.86598 6.31042 6.02577 7.26667 6.72165C6.7 6.68299 6.16875 6.52835 5.67292 6.25773V6.29639C5.67292 8.15206 6.87708 9.69845 8.47083 10.0464C8.1875 10.1237 7.86875 10.1624 7.55 10.1624C7.3375 10.1624 7.08958 10.1237 6.87708 10.0851C7.3375 11.5928 8.6125 12.7139 10.1354 12.7139C8.93125 13.7191 7.44375 14.3376 5.81458 14.3376C5.53125 14.3376 5.24792 14.3376 5 14.299C6.55833 15.3814 8.36458 16 10.3479 16C16.7583 16 20.2646 10.201 20.2646 5.17526C20.2646 5.02062 20.2646 4.82732 20.2646 4.67268C20.9375 4.1701 21.5396 3.51289 22 2.73969Z" fill="white"/>
<path d="M22 2.73969C21.3625 3.04897 20.6896 3.24227 19.9812 3.35825C20.6896 2.89433 21.2563 2.15979 21.5042 1.27062C20.8313 1.69588 20.0875 2.00515 19.2729 2.19845C18.6354 1.46392 17.7146 1 16.7229 1C14.8104 1 13.2521 2.70103 13.2521 4.78866C13.2521 5.09794 13.2875 5.36856 13.3583 5.63918C10.4896 5.48454 7.90417 3.9768 6.16875 1.65722C5.88542 2.23711 5.70833 2.85567 5.70833 3.55155C5.70833 4.86598 6.31042 6.02577 7.26667 6.72165C6.7 6.68299 6.16875 6.52835 5.67292 6.25773V6.29639C5.67292 8.15206 6.87708 9.69845 8.47083 10.0464C8.1875 10.1237 7.86875 10.1624 7.55 10.1624C7.3375 10.1624 7.08958 10.1237 6.87708 10.0851C7.3375 11.5928 8.6125 12.7139 10.1354 12.7139C8.93125 13.7191 7.44375 14.3376 5.81458 14.3376C5.53125 14.3376 5.24792 14.3376 5 14.299C6.55833 15.3814 8.36458 16 10.3479 16C16.7583 16 20.2646 10.201 20.2646 5.17526C20.2646 5.02062 20.2646 4.82732 20.2646 4.67268C20.9375 4.1701 21.5396 3.51289 22 2.73969Z" stroke="black"/>
</g>
<defs>
<filter id="filter0_d_35_157" x="0.714722" y="0.154541" width="26.569" height="24.3455" filterUnits="userSpaceOnUse" color-interpolation-filters="sRGB">
<feFlood flood-opacity="0" result="BackgroundImageFix"/>
<feColorMatrix in="SourceAlpha" type="matrix" values="0 0 0 0 0 0 0 0 0 0 0 0 0 0 0 0 0 0 127 0" result="hardAlpha"/>
<feOffset dy="4"/>
<feGaussianBlur stdDeviation="2"/>
<feComposite in2="hardAlpha" operator="out"/>
<feColorMatrix type="matrix" values="0 0 0 0 0 0 0 0 0 0 0 0 0 0 0 0 0 0 0.25 0"/>
<feBlend mode="normal" in2="BackgroundImageFix" result="effect1_dropShadow_35_157"/>
<feBlend mode="normal" in="SourceGraphic" in2="effect1_dropShadow_35_157" result="shape"/>
</filter>
</defs>
</svg>
